<?xml version="1.0" encoding="UTF-8" standalone="no"?>
<svg
   xmlns:osb="http://www.openswatchbook.org/uri/2009/osb"
   xmlns:dc="http://purl.org/dc/elements/1.1/"
   xmlns:cc="http://creativecommons.org/ns#"
   xmlns:rdf="http://www.w3.org/1999/02/22-rdf-syntax-ns#"
   xmlns:svg="http://www.w3.org/2000/svg"
   xmlns="http://www.w3.org/2000/svg"
   xmlns:sodipodi="http://sodipodi.sourceforge.net/DTD/sodipodi-0.dtd"
   xmlns:inkscape="http://www.inkscape.org/namespaces/inkscape"
   inkscape:export-ydpi="42.131569"
   inkscape:export-xdpi="42.131569"
   inkscape:export-filename="/Volumes/Data/gdrive-ridev/progetti/netowledge/netowledge/public/images/netowledge-logo-white.png"
   inkscape:version="1.0 (4035a4f, 2020-05-01)"
   sodipodi:docname="netowledge.logo.white.svg"
   id="svg1022"
   stroke-miterlimit="10"
   stroke-linecap="square"
   stroke="none"
   fill="none"
   viewBox="0.0 0.0 958.8215223097113 196.21259842519686"
   version="1.1">
  <metadata
     id="metadata1028">
    <rdf:RDF>
      <cc:Work
         rdf:about="">
        <dc:format>image/svg+xml</dc:format>
        <dc:type
           rdf:resource="http://purl.org/dc/dcmitype/StillImage" />
        <dc:title></dc:title>
      </cc:Work>
    </rdf:RDF>
  </metadata>
  <defs
     id="defs1026">
    <linearGradient
       osb:paint="solid"
       id="linearGradient1568">
      <stop
         id="stop1566"
         offset="0"
         style="stop-color:#ffffff;stop-opacity:1;" />
    </linearGradient>
    <clipPath
       id="p.0-2">
      <path
         d="M 0,0 H 958.82153 V 196.2126 H 0 Z"
         clip-rule="nonzero"
         id="path833-6" />
    </clipPath>
  </defs>
  <sodipodi:namedview
     inkscape:current-layer="layer3"
     inkscape:window-maximized="0"
     inkscape:window-y="0"
     inkscape:window-x="0"
     inkscape:cy="124.52744"
     inkscape:cx="469.09746"
     inkscape:zoom="0.75952852"
     showgrid="false"
     id="namedview1024"
     inkscape:window-height="960"
     inkscape:window-width="1536"
     inkscape:pageshadow="2"
     inkscape:pageopacity="0"
     guidetolerance="10"
     gridtolerance="10"
     objecttolerance="10"
     borderopacity="1"
     bordercolor="#666666"
     pagecolor="#ffffff" />
  <clipPath
     id="p.0">
    <path
       id="path833"
       clip-rule="nonzero"
       d="m0 0l958.82153 0l0 196.2126l-958.82153 0l0 -196.2126z" />
  </clipPath>
  <g
     style="display:none"
     sodipodi:insensitive="true"
     inkscape:label="bg"
     id="layer1"
     inkscape:groupmode="layer">
    <rect
       style="opacity:0.85;fill:#ffcc00;stroke:none;stroke-width:5.15906;stroke-linecap:round;stroke-linejoin:round;stroke-miterlimit:3.8"
       id="rect1048"
       width="1139.2882"
       height="397.79129"
       x="-133.18027"
       y="-104.5417"
       ry="198.89565" />
  </g>
  <g
     style="display:inline"
     inkscape:label="lines"
     id="layer3"
     inkscape:groupmode="layer">
    <g
       inkscape:export-ydpi="42.131569"
       inkscape:export-xdpi="42.131569"
       style="fill:none;fill-opacity:1;stroke:#ffffff;stroke-opacity:1;stroke-width:5;stroke-miterlimit:10;stroke-dasharray:none"
       id="g1564">
      <path
         stroke="#000000"
         stroke-width="1"
         stroke-linejoin="round"
         stroke-linecap="butt"
         d="m 729.5011,177.97351 v 0 c 27.04401,-0.10486 48.97302,-34.00995 49.12024,-75.94631 0.14716,-41.936369 -21.54248,-76.209639 -48.58417,-76.771009 z"
         fill-rule="evenodd"
         id="path840"
         style="fill:none;fill-opacity:1;stroke:#ffffff;stroke-width:5;stroke-miterlimit:10;stroke-dasharray:none;stroke-opacity:1" />
      <path
         stroke="#000000"
         stroke-width="1"
         stroke-linejoin="round"
         stroke-linecap="butt"
         d="M 13.981627,31.994752 V 171.01837"
         fill-rule="evenodd"
         id="path848"
         style="fill:none;fill-opacity:1;stroke:#ffffff;stroke-width:5;stroke-miterlimit:10;stroke-dasharray:none;stroke-opacity:1" />
      <path
         stroke="#000000"
         stroke-width="1"
         stroke-linejoin="round"
         stroke-linecap="butt"
         d="M 85.480316,31.989503 V 171.01312"
         fill-rule="evenodd"
         id="path856"
         style="fill:none;fill-opacity:1;stroke:#ffffff;stroke-width:5;stroke-miterlimit:10;stroke-dasharray:none;stroke-opacity:1" />
      <path
         stroke="#000000"
         stroke-width="1"
         stroke-linejoin="round"
         stroke-linecap="butt"
         d="M 18.881266,29.965255 80.582056,173.05186"
         fill-rule="evenodd"
         id="path860"
         style="fill:none;fill-opacity:1;stroke:#ffffff;stroke-width:5;stroke-miterlimit:10;stroke-dasharray:none;stroke-opacity:1" />
      <path
         stroke="#000000"
         stroke-width="1"
         stroke-linejoin="round"
         stroke-linecap="butt"
         d="M 118.98163,31.994752 V 171.01837"
         fill-rule="evenodd"
         id="path868"
         style="fill:none;fill-opacity:1;stroke:#ffffff;stroke-width:5;stroke-miterlimit:10;stroke-dasharray:none;stroke-opacity:1" />
      <path
         stroke="#000000"
         stroke-width="1"
         stroke-linejoin="round"
         stroke-linecap="butt"
         d="m 125.91076,25.065618 h 57.63779"
         fill-rule="evenodd"
         id="path876"
         style="fill:none;fill-opacity:1;stroke:#ffffff;stroke-width:5;stroke-miterlimit:10;stroke-dasharray:none;stroke-opacity:1" />
      <path
         stroke="#000000"
         stroke-width="1"
         stroke-linejoin="round"
         stroke-linecap="butt"
         d="m 125.91076,177.95801 h 57.63779"
         fill-rule="evenodd"
         id="path880"
         style="fill:none;fill-opacity:1;stroke:#ffffff;stroke-width:5;stroke-miterlimit:10;stroke-dasharray:none;stroke-opacity:1" />
      <path
         stroke="#000000"
         stroke-width="1"
         stroke-linejoin="round"
         stroke-linecap="butt"
         d="m 118.98163,101.50656 h 57.63779"
         fill-rule="evenodd"
         id="path886"
         style="fill:none;fill-opacity:1;stroke:#ffffff;stroke-width:5;stroke-miterlimit:10;stroke-dasharray:none;stroke-opacity:1" />
      <path
         stroke="#000000"
         stroke-width="1"
         stroke-linejoin="round"
         stroke-linecap="butt"
         d="m 223.979,25.057744 h 57.63779"
         fill-rule="evenodd"
         id="path896"
         style="fill:none;fill-opacity:1;stroke:#ffffff;stroke-width:5;stroke-miterlimit:10;stroke-dasharray:none;stroke-opacity:1" />
      <path
         stroke="#000000"
         stroke-width="1"
         stroke-linejoin="round"
         stroke-linecap="butt"
         d="M 252.7979,25.249345 V 171.01312"
         fill-rule="evenodd"
         id="path900"
         style="fill:none;fill-opacity:1;stroke:#ffffff;stroke-width:5;stroke-miterlimit:10;stroke-dasharray:none;stroke-opacity:1" />
      <path
         stroke="#000000"
         stroke-width="1"
         stroke-linejoin="round"
         stroke-linecap="butt"
         d="m 298.12073,101.61155 v 0 c 0,-42.173682 19.11429,-76.362205 42.69293,-76.362205 v 0 c 11.32285,0 22.18198,8.04528 30.18845,22.36597 8.00647,14.320694 12.50445,33.743717 12.50445,53.996235 v 0 c 0,42.17368 -19.11425,76.3622 -42.6929,76.3622 v 0 c -23.57864,0 -42.69293,-34.18852 -42.69293,-76.3622 z"
         fill-rule="evenodd"
         id="path904"
         style="fill:none;fill-opacity:1;stroke:#ffffff;stroke-width:5;stroke-miterlimit:10;stroke-dasharray:none;stroke-opacity:1" />
      <path
         stroke="#000000"
         stroke-width="1"
         stroke-linejoin="round"
         stroke-linecap="butt"
         d="M 396.8294,32.097116 423.44357,173.16798"
         fill-rule="evenodd"
         id="path912"
         style="fill:none;fill-opacity:1;stroke:#ffffff;stroke-width:5;stroke-miterlimit:10;stroke-dasharray:none;stroke-opacity:1" />
      <path
         stroke="#000000"
         stroke-width="1"
         stroke-linejoin="round"
         stroke-linecap="butt"
         d="m 433.22772,173.15549 13.44882,-29.44882"
         fill-rule="evenodd"
         id="path916"
         style="fill:none;fill-opacity:1;stroke:#ffffff;stroke-width:5;stroke-miterlimit:10;stroke-dasharray:none;stroke-opacity:1" />
      <path
         stroke="#000000"
         stroke-width="1"
         stroke-linejoin="round"
         stroke-linecap="butt"
         d="M 460.10825,173.04262 446.65943,143.71979"
         fill-rule="evenodd"
         id="path920"
         style="fill:none;fill-opacity:1;stroke:#ffffff;stroke-width:5;stroke-miterlimit:10;stroke-dasharray:none;stroke-opacity:1" />
      <path
         stroke="#000000"
         stroke-width="1"
         stroke-linejoin="round"
         stroke-linecap="butt"
         d="M 469.9075,173.04262 491.07287,31.971761"
         fill-rule="evenodd"
         id="path928"
         style="fill:none;fill-opacity:1;stroke:#ffffff;stroke-width:5;stroke-miterlimit:10;stroke-dasharray:none;stroke-opacity:1" />
      <path
         stroke="#000000"
         stroke-width="1"
         stroke-linejoin="round"
         stroke-linecap="butt"
         d="M 521.2336,31.992127 V 171.01575"
         fill-rule="evenodd"
         id="path938"
         style="fill:none;fill-opacity:1;stroke:#ffffff;stroke-width:5;stroke-miterlimit:10;stroke-dasharray:none;stroke-opacity:1" />
      <path
         stroke="#000000"
         stroke-width="1"
         stroke-linejoin="round"
         stroke-linecap="butt"
         d="m 528.1627,177.95538 h 57.63782"
         fill-rule="evenodd"
         id="path944"
         style="fill:none;fill-opacity:1;stroke:#ffffff;stroke-width:5;stroke-miterlimit:10;stroke-dasharray:none;stroke-opacity:1" />
      <path
         stroke="#000000"
         stroke-width="1"
         stroke-linejoin="round"
         stroke-linecap="butt"
         d="M 621.5486,31.986878 V 171.0105"
         fill-rule="evenodd"
         id="path952"
         style="fill:none;fill-opacity:1;stroke:#ffffff;stroke-width:5;stroke-miterlimit:10;stroke-dasharray:none;stroke-opacity:1" />
      <path
         stroke="#000000"
         stroke-width="1"
         stroke-linejoin="round"
         stroke-linecap="butt"
         d="m 628.47766,25.057744 h 57.63782"
         fill-rule="evenodd"
         id="path960"
         style="fill:none;fill-opacity:1;stroke:#ffffff;stroke-width:5;stroke-miterlimit:10;stroke-dasharray:none;stroke-opacity:1" />
      <path
         stroke="#000000"
         stroke-width="1"
         stroke-linejoin="round"
         stroke-linecap="butt"
         d="m 628.47766,177.95013 h 57.63782"
         fill-rule="evenodd"
         id="path964"
         style="fill:none;fill-opacity:1;stroke:#ffffff;stroke-width:5;stroke-miterlimit:10;stroke-dasharray:none;stroke-opacity:1" />
      <path
         stroke="#000000"
         stroke-width="1"
         stroke-linejoin="round"
         stroke-linecap="butt"
         d="m 621.5486,101.49869 h 57.63776"
         fill-rule="evenodd"
         id="path970"
         style="fill:none;fill-opacity:1;stroke:#ffffff;stroke-width:5;stroke-miterlimit:10;stroke-dasharray:none;stroke-opacity:1" />
      <path
         stroke="#000000"
         stroke-width="1"
         stroke-linejoin="round"
         stroke-linecap="butt"
         d="m 840.12317,25.682607 v 0 c -27.0285,0.09396 -48.95667,33.95288 -49.13263,75.864933 -0.17596,41.91204 21.46613,76.21078 48.49158,76.85039"
         fill-rule="evenodd"
         id="path980"
         style="fill:none;fill-opacity:1;stroke:#ffffff;stroke-width:5;stroke-miterlimit:10;stroke-dasharray:none;stroke-opacity:1" />
      <path
         stroke="#000000"
         stroke-width="1"
         stroke-linejoin="round"
         stroke-linecap="butt"
         d="M 838.7953,120.28871 H 817.85041"
         fill-rule="evenodd"
         id="path990"
         style="fill:none;fill-opacity:1;stroke:#ffffff;stroke-width:5;stroke-miterlimit:10;stroke-dasharray:none;stroke-opacity:1" />
      <path
         stroke="#000000"
         stroke-width="1"
         stroke-linejoin="round"
         stroke-linecap="butt"
         d="M 870.02625,31.984252 V 171.00787"
         fill-rule="evenodd"
         id="path1000"
         style="fill:none;fill-opacity:1;stroke:#ffffff;stroke-width:5;stroke-miterlimit:10;stroke-dasharray:none;stroke-opacity:1" />
      <path
         stroke="#000000"
         stroke-width="1"
         stroke-linejoin="round"
         stroke-linecap="butt"
         d="m 876.9554,25.05512 h 57.63782"
         fill-rule="evenodd"
         id="path1008"
         style="fill:none;fill-opacity:1;stroke:#ffffff;stroke-width:5;stroke-miterlimit:10;stroke-dasharray:none;stroke-opacity:1" />
      <path
         stroke="#000000"
         stroke-width="1"
         stroke-linejoin="round"
         stroke-linecap="butt"
         d="m 876.9554,177.94751 h 57.63782"
         fill-rule="evenodd"
         id="path1012"
         style="fill:none;fill-opacity:1;stroke:#ffffff;stroke-width:5;stroke-miterlimit:10;stroke-dasharray:none;stroke-opacity:1" />
      <path
         stroke="#000000"
         stroke-width="1"
         stroke-linejoin="round"
         stroke-linecap="butt"
         d="m 870.02625,101.49606 h 57.63782"
         fill-rule="evenodd"
         id="path1018"
         style="fill:none;fill-opacity:1;stroke:#ffffff;stroke-width:5;stroke-miterlimit:10;stroke-dasharray:none;stroke-opacity:1" />
      <path
         style="fill:none;fill-opacity:1;stroke:#ffffff;stroke-opacity:1;stroke-width:5;stroke-miterlimit:10;stroke-dasharray:none"
         stroke="#000000"
         stroke-width="1"
         stroke-linejoin="round"
         stroke-linecap="butt"
         d="M 839.4821,178.39793 V 120.28769"
         fill-rule="evenodd"
         id="path986" />
    </g>
  </g>
  <g
     style="display:inline"
     sodipodi:insensitive="true"
     inkscape:label="logo"
     id="layer2"
     inkscape:groupmode="layer">
    <g
       clip-path="url(#p.0-2)"
       id="g1020">
      <path
         fill="#000000"
         fill-opacity="0"
         d="M 0,0 H 958.82153 V 196.2126 H 0 Z"
         fill-rule="evenodd"
         id="path836" />
      <path
         fill="#000000"
         fill-opacity="0"
         d="m 729.5011,177.97351 v 0 c 27.04401,-0.10486 48.97302,-34.00995 49.12024,-75.94631 0.14716,-41.93637 -21.54248,-76.20964 -48.58417,-76.77101 z"
         fill-rule="evenodd"
         id="path838" />
      <path
         fill="#674ea7"
         d="m 7.0524936,25.065617 v 0 c 0,-3.826855 3.1022794,-6.929134 6.9291344,-6.929134 v 0 c 1.837719,0 3.600173,0.730032 4.899638,2.029497 1.299463,1.299465 2.029495,3.061916 2.029495,4.899637 v 0 c 0,3.826854 -3.102278,6.929134 -6.929134,6.929134 v 0 c -3.826854,0 -6.9291336,-3.10228 -6.9291334,-6.929134 z"
         fill-rule="evenodd"
         id="path842" />
      <path
         fill="#674ea7"
         d="m 7.0524936,177.95801 v 0 c 0,-3.82686 3.1022794,-6.92914 6.9291344,-6.92914 v 0 c 1.837719,0 3.600173,0.73003 4.899638,2.0295 1.299463,1.29947 2.029495,3.06192 2.029495,4.89964 v 0 c 0,3.82686 -3.102278,6.92914 -6.929134,6.92914 v 0 c -3.826854,0 -6.9291336,-3.10228 -6.9291334,-6.92914 z"
         fill-rule="evenodd"
         id="path844" />
      <path
         fill="#000000"
         fill-opacity="0"
         d="M 13.981627,31.994751 V 171.01837"
         fill-rule="evenodd"
         id="path846" />
      <path
         fill="#674ea7"
         d="m 78.55118,25.060368 v 0 c 0,-3.826855 3.10228,-6.929134 6.929138,-6.929134 v 0 c 1.837723,0 3.600174,0.730032 4.899635,2.029497 1.299469,1.299463 2.029495,3.061916 2.029495,4.899637 v 0 c 0,3.826854 -3.102279,6.929134 -6.92913,6.929134 v 0 c -3.826859,0 -6.929138,-3.10228 -6.929138,-6.929134 z"
         fill-rule="evenodd"
         id="path850" />
      <path
         fill="#674ea7"
         d="m 78.55118,177.95276 v 0 c 0,-3.82686 3.10228,-6.92914 6.929138,-6.92914 v 0 c 1.837723,0 3.600174,0.73003 4.899635,2.0295 1.299469,1.29947 2.029495,3.06192 2.029495,4.89964 v 0 c 0,3.82686 -3.102279,6.92914 -6.92913,6.92914 v 0 c -3.826859,0 -6.929138,-3.10228 -6.929138,-6.92914 z"
         fill-rule="evenodd"
         id="path852" />
      <path
         fill="#000000"
         fill-opacity="0"
         d="M 85.480316,31.989502 V 171.01312"
         fill-rule="evenodd"
         id="path854" />
      <path
         fill="#000000"
         fill-opacity="0"
         d="M 18.881266,29.965254 80.582056,173.05186"
         fill-rule="evenodd"
         id="path858" />
      <path
         fill="#674ea7"
         d="m 112.05249,25.065617 v 0 c 0,-3.826855 3.10228,-6.929134 6.92914,-6.929134 v 0 c 1.83772,0 3.60017,0.730032 4.89963,2.029497 1.29947,1.299465 2.0295,3.061916 2.0295,4.899637 v 0 c 0,3.826854 -3.10228,6.929134 -6.92913,6.929134 v 0 c -3.82686,0 -6.92914,-3.10228 -6.92914,-6.929134 z"
         fill-rule="evenodd"
         id="path862" />
      <path
         fill="#674ea7"
         d="m 112.05249,177.95801 v 0 c 0,-3.82686 3.10228,-6.92914 6.92914,-6.92914 v 0 c 1.83772,0 3.60017,0.73003 4.89963,2.0295 1.29947,1.29947 2.0295,3.06192 2.0295,4.89964 v 0 c 0,3.82686 -3.10228,6.92914 -6.92913,6.92914 v 0 c -3.82686,0 -6.92914,-3.10228 -6.92914,-6.92914 z"
         fill-rule="evenodd"
         id="path864" />
      <path
         fill="#000000"
         fill-opacity="0"
         d="M 118.98163,31.994751 V 171.01837"
         fill-rule="evenodd"
         id="path866" />
      <path
         fill="#674ea7"
         d="m 183.55118,25.060368 v 0 c 0,-3.826855 3.10228,-6.929134 6.92914,-6.929134 v 0 c 1.83772,0 3.60017,0.730032 4.89964,2.029497 1.29945,1.299463 2.0295,3.061916 2.0295,4.899637 v 0 c 0,3.826854 -3.10228,6.929134 -6.92914,6.929134 v 0 c -3.82686,0 -6.92914,-3.10228 -6.92914,-6.929134 z"
         fill-rule="evenodd"
         id="path870" />
      <path
         fill="#674ea7"
         d="m 183.55118,177.95276 v 0 c 0,-3.82686 3.10228,-6.92914 6.92914,-6.92914 v 0 c 1.83772,0 3.60017,0.73003 4.89964,2.0295 1.29945,1.29947 2.0295,3.06192 2.0295,4.89964 v 0 c 0,3.82686 -3.10228,6.92914 -6.92914,6.92914 v 0 c -3.82686,0 -6.92914,-3.10228 -6.92914,-6.92914 z"
         fill-rule="evenodd"
         id="path872" />
      <path
         fill="#000000"
         fill-opacity="0"
         d="m 125.91076,25.065617 h 57.63779"
         fill-rule="evenodd"
         id="path874" />
      <path
         fill="#000000"
         fill-opacity="0"
         d="m 125.91076,177.95801 h 57.63779"
         fill-rule="evenodd"
         id="path878" />
      <path
         fill="#674ea7"
         d="m 176.61942,101.50656 v 0 c 0,-3.826851 3.10228,-6.929131 6.92914,-6.929131 v 0 c 1.83772,0 3.60017,0.730027 4.89964,2.029496 1.29947,1.299461 2.0295,3.061912 2.0295,4.899635 v 0 c 0,3.82686 -3.10228,6.92913 -6.92914,6.92913 v 0 c -3.82686,0 -6.92914,-3.10227 -6.92914,-6.92913 z"
         fill-rule="evenodd"
         id="path882" />
      <path
         fill="#000000"
         fill-opacity="0"
         d="m 118.98163,101.50656 h 57.63779"
         fill-rule="evenodd"
         id="path884" />
      <path
         fill="#674ea7"
         d="m 210.12073,25.057743 v 0 c 0,-3.826855 3.10228,-6.929134 6.92914,-6.929134 v 0 c 1.83772,0 3.60017,0.730032 4.89964,2.029497 1.29947,1.299463 2.0295,3.061916 2.0295,4.899637 v 0 c 0,3.826854 -3.10228,6.929134 -6.92914,6.929134 v 0 c -3.82686,0 -6.92914,-3.10228 -6.92914,-6.929134 z"
         fill-rule="evenodd"
         id="path888" />
      <path
         fill="#674ea7"
         d="m 281.61942,25.052494 v 0 c 0,-3.826855 3.1023,-6.929134 6.92914,-6.929134 v 0 c 1.83774,0 3.60019,0.730032 4.89963,2.029497 1.29946,1.299463 2.02951,3.061916 2.02951,4.899637 v 0 c 0,3.826854 -3.1023,6.929132 -6.92914,6.929132 v 0 c -3.82685,0 -6.92914,-3.102278 -6.92914,-6.929132 z"
         fill-rule="evenodd"
         id="path890" />
      <path
         fill="#674ea7"
         d="m 245.86876,177.94226 v 0 c 0,-3.82686 3.10228,-6.92914 6.92914,-6.92914 v 0 c 1.83772,0 3.60017,0.73003 4.89964,2.0295 1.29947,1.29947 2.02948,3.06192 2.02948,4.89964 v 0 c 0,3.82686 -3.10226,6.92912 -6.92912,6.92912 v 0 c -3.82686,0 -6.92914,-3.10226 -6.92914,-6.92912 z"
         fill-rule="evenodd"
         id="path892" />
      <path
         fill="#000000"
         fill-opacity="0"
         d="m 223.979,25.057743 h 57.63779"
         fill-rule="evenodd"
         id="path894" />
      <path
         fill="#000000"
         fill-opacity="0"
         d="M 252.7979,25.249344 V 171.01312"
         fill-rule="evenodd"
         id="path898" />
      <path
         fill="#000000"
         fill-opacity="0"
         d="m 298.12073,101.61155 v 0 c 0,-42.173683 19.11429,-76.362206 42.69293,-76.362206 v 0 c 11.32285,0 22.18198,8.04528 30.18845,22.36597 8.00647,14.320694 12.50445,33.743717 12.50445,53.996236 v 0 c 0,42.17368 -19.11425,76.3622 -42.6929,76.3622 v 0 c -23.57864,0 -42.69293,-34.18852 -42.69293,-76.3622 z"
         fill-rule="evenodd"
         id="path902" />
      <path
         fill="#674ea7"
         d="m 389.90027,25.167978 v 0 c 0,-3.826855 3.10226,-6.929132 6.92914,-6.929132 v 0 c 1.83771,0 3.60016,0.73003 4.89963,2.029495 1.29946,1.299465 2.02951,3.061918 2.02951,4.899637 v 0 c 0,3.826856 -3.1023,6.929136 -6.92914,6.929136 v 0 c -3.82688,0 -6.92914,-3.10228 -6.92914,-6.929136 z"
         fill-rule="evenodd"
         id="path906" />
      <path
         fill="#674ea7"
         d="m 421.39896,178.05511 v 0 c 0,-3.82686 3.10226,-6.92912 6.92914,-6.92912 v 0 c 1.83771,0 3.60016,0.73002 4.89963,2.02949 1.29946,1.29946 2.02951,3.06191 2.02951,4.89963 v 0 c 0,3.82686 -3.1023,6.92914 -6.92914,6.92914 v 0 c -3.82688,0 -6.92914,-3.10228 -6.92914,-6.92914 z"
         fill-rule="evenodd"
         id="path908" />
      <path
         fill="#000000"
         fill-opacity="0"
         d="M 396.8294,32.097115 423.44357,173.16798"
         fill-rule="evenodd"
         id="path910" />
      <path
         fill="#000000"
         fill-opacity="0"
         d="m 433.22772,173.15549 13.44882,-29.44882"
         fill-rule="evenodd"
         id="path914" />
      <path
         fill="#000000"
         fill-opacity="0"
         d="M 460.10825,173.04262 446.65943,143.71979"
         fill-rule="evenodd"
         id="path918" />
      <path
         fill="#674ea7"
         d="m 458.07874,177.94226 v 0 c 0,-3.82686 3.10229,-6.92914 6.92914,-6.92914 v 0 c 1.83771,0 3.60016,0.73003 4.89963,2.0295 1.29946,1.29947 2.02951,3.06192 2.02951,4.89964 v 0 c 0,3.82686 -3.1023,6.92912 -6.92914,6.92912 v 0 c -3.82685,0 -6.92914,-3.10226 -6.92914,-6.92912 z"
         fill-rule="evenodd"
         id="path922" />
      <path
         fill="#674ea7"
         d="m 484.13385,25.052494 v 0 c 0,-3.826855 3.1023,-6.929134 6.92914,-6.929134 v 0 c 1.83774,0 3.60019,0.730032 4.89963,2.029497 1.29946,1.299463 2.02951,3.061916 2.02951,4.899637 v 0 c 0,3.826854 -3.10227,6.929132 -6.92914,6.929132 v 0 c -3.82685,0 -6.92914,-3.102278 -6.92914,-6.929132 z"
         fill-rule="evenodd"
         id="path924" />
      <path
         fill="#000000"
         fill-opacity="0"
         d="M 469.9075,173.04262 491.07287,31.97176"
         fill-rule="evenodd"
         id="path926" />
      <path
         fill="#674ea7"
         d="m 439.7454,150.6483 v 0 c 0,-3.82686 3.1023,-6.92914 6.92914,-6.92914 v 0 c 1.83774,0 3.60019,0.73003 4.89966,2.0295 1.29947,1.29947 2.02948,3.06192 2.02948,4.89964 v 0 c 0,3.82684 -3.10227,6.92912 -6.92914,6.92912 v 0 c -3.82685,0 -6.92914,-3.10228 -6.92914,-6.92912 z"
         fill-rule="evenodd"
         id="path930" />
      <path
         fill="#674ea7"
         d="m 514.30444,25.062992 v 0 c 0,-3.826855 3.1023,-6.929134 6.92914,-6.929134 v 0 c 1.83771,0 3.60016,0.730032 4.89966,2.029497 1.29943,1.299465 2.02948,3.061916 2.02948,4.899637 v 0 c 0,3.826854 -3.1023,6.929134 -6.92914,6.929134 v 0 c -3.82685,0 -6.92914,-3.10228 -6.92914,-6.929134 z"
         fill-rule="evenodd"
         id="path932" />
      <path
         fill="#674ea7"
         d="m 514.30444,177.95538 v 0 c 0,-3.82686 3.1023,-6.92914 6.92914,-6.92914 v 0 c 1.83771,0 3.60016,0.73003 4.89966,2.0295 1.29943,1.29947 2.02948,3.06192 2.02948,4.89964 v 0 c 0,3.82686 -3.1023,6.92914 -6.92914,6.92914 v 0 c -3.82685,0 -6.92914,-3.10228 -6.92914,-6.92914 z"
         fill-rule="evenodd"
         id="path934" />
      <path
         fill="#000000"
         fill-opacity="0"
         d="M 521.2336,31.992126 V 171.01575"
         fill-rule="evenodd"
         id="path936" />
      <path
         fill="#674ea7"
         d="m 585.80316,177.95013 v 0 c 0,-3.82686 3.1023,-6.92914 6.92914,-6.92914 v 0 c 1.83771,0 3.60016,0.73003 4.89959,2.0295 1.2995,1.29947 2.02955,3.06192 2.02955,4.89964 v 0 c 0,3.82686 -3.1023,6.92914 -6.92914,6.92914 v 0 c -3.82685,0 -6.92914,-3.10228 -6.92914,-6.92914 z"
         fill-rule="evenodd"
         id="path940" />
      <path
         fill="#000000"
         fill-opacity="0"
         d="m 528.1627,177.95538 h 57.63782"
         fill-rule="evenodd"
         id="path942" />
      <path
         fill="#674ea7"
         d="m 614.61945,25.057743 v 0 c 0,-3.826855 3.10223,-6.929134 6.92914,-6.929134 v 0 c 1.83771,0 3.60016,0.730032 4.89959,2.029497 1.2995,1.299463 2.02948,3.061916 2.02948,4.899637 v 0 c 0,3.826854 -3.10223,6.929134 -6.92907,6.929134 v 0 c -3.82691,0 -6.92914,-3.10228 -6.92914,-6.929134 z"
         fill-rule="evenodd"
         id="path946" />
      <path
         fill="#674ea7"
         d="m 614.61945,177.95013 v 0 c 0,-3.82686 3.10223,-6.92914 6.92914,-6.92914 v 0 c 1.83771,0 3.60016,0.73003 4.89959,2.0295 1.2995,1.29947 2.02948,3.06192 2.02948,4.89964 v 0 c 0,3.82686 -3.10223,6.92914 -6.92907,6.92914 v 0 c -3.82691,0 -6.92914,-3.10228 -6.92914,-6.92914 z"
         fill-rule="evenodd"
         id="path948" />
      <path
         fill="#000000"
         fill-opacity="0"
         d="M 621.5486,31.986877 V 171.0105"
         fill-rule="evenodd"
         id="path950" />
      <path
         fill="#674ea7"
         d="m 686.1181,25.052494 v 0 c 0,-3.826855 3.1023,-6.929134 6.92914,-6.929134 v 0 c 1.83771,0 3.60016,0.730032 4.89966,2.029497 1.29943,1.299463 2.02948,3.061916 2.02948,4.899637 v 0 c 0,3.826854 -3.1023,6.929132 -6.92914,6.929132 v 0 c -3.82685,0 -6.92914,-3.102278 -6.92914,-6.929132 z"
         fill-rule="evenodd"
         id="path954" />
      <path
         fill="#674ea7"
         d="m 686.1181,177.94489 v 0 c 0,-3.82686 3.1023,-6.92914 6.92914,-6.92914 v 0 c 1.83771,0 3.60016,0.73003 4.89966,2.0295 1.29943,1.29947 2.02948,3.06192 2.02948,4.89964 v 0 c 0,3.82686 -3.1023,6.92912 -6.92914,6.92912 v 0 c -3.82685,0 -6.92914,-3.10226 -6.92914,-6.92912 z"
         fill-rule="evenodd"
         id="path956" />
      <path
         fill="#000000"
         fill-opacity="0"
         d="m 628.47766,25.057743 h 57.63782"
         fill-rule="evenodd"
         id="path958" />
      <path
         fill="#000000"
         fill-opacity="0"
         d="m 628.47766,177.95013 h 57.63782"
         fill-rule="evenodd"
         id="path962" />
      <path
         fill="#674ea7"
         d="m 679.18634,101.49869 v 0 c 0,-3.826859 3.10229,-6.929131 6.92914,-6.929131 v 0 c 1.83771,0 3.60016,0.730027 4.89966,2.029496 1.29943,1.299461 2.02948,3.061912 2.02948,4.899635 v 0 c 0,3.82686 -3.1023,6.92913 -6.92914,6.92913 v 0 c -3.82685,0 -6.92914,-3.10227 -6.92914,-6.92913 z"
         fill-rule="evenodd"
         id="path966" />
      <path
         fill="#000000"
         fill-opacity="0"
         d="m 621.5486,101.49869 h 57.63776"
         fill-rule="evenodd"
         id="path968" />
      <path
         fill="#674ea7"
         d="m 721.8635,26.062992 v 0 c 0,-3.826855 3.1023,-6.929134 6.92914,-6.929134 v 0 c 1.83771,0 3.60016,0.730032 4.89959,2.029497 1.2995,1.299465 2.02955,3.061916 2.02955,4.899637 v 0 c 0,3.826854 -3.1023,6.929134 -6.92914,6.929134 v 0 c -3.82685,0 -6.92914,-3.10228 -6.92914,-6.929134 z"
         fill-rule="evenodd"
         id="path972" />
      <path
         fill="#674ea7"
         d="m 721.8635,178.95538 v 0 c 0,-3.82686 3.1023,-6.92914 6.92914,-6.92914 v 0 c 1.83771,0 3.60016,0.73003 4.89959,2.0295 1.2995,1.29947 2.02955,3.06192 2.02955,4.89964 v 0 c 0,3.82686 -3.1023,6.92914 -6.92914,6.92914 v 0 c -3.82685,0 -6.92914,-3.10228 -6.92914,-6.92914 z"
         fill-rule="evenodd"
         id="path974" />
      <path
         fill="#000000"
         fill-opacity="0"
         d="m 840.12317,25.682606 v 0 c -27.0285,0.09396 -48.95667,33.95288 -49.13263,75.864934 -0.17596,41.91204 21.46613,76.21078 48.49158,76.85039 l 0.75146,-76.35332 z"
         fill-rule="evenodd"
         id="path976" />
      <path
         fill="#000000"
         fill-opacity="0"
         d="m 840.12317,25.682606 v 0 c -27.0285,0.09396 -48.95667,33.95288 -49.13263,75.864934 -0.17596,41.91204 21.46613,76.21078 48.49158,76.85039"
         fill-rule="evenodd"
         id="path978" />
      <path
         fill="#674ea7"
         d="m 837.20734,26.062992 v 0 c 0,-3.826855 3.1023,-6.929134 6.92914,-6.929134 v 0 c 1.83771,0 3.60016,0.730032 4.89966,2.029497 1.29943,1.299465 2.02948,3.061916 2.02948,4.899637 v 0 c 0,3.826854 -3.1023,6.929134 -6.92914,6.929134 v 0 c -3.82685,0 -6.92914,-3.10228 -6.92914,-6.929134 z"
         fill-rule="evenodd"
         id="path982" />
      <path
         fill="#000000"
         fill-opacity="0"
         d="M 839.4821,178.39793 V 120.28769"
         fill-rule="evenodd"
         id="path984" />
      <path
         fill="#000000"
         fill-opacity="0"
         d="M 838.7953,120.28871 H 817.85041"
         fill-rule="evenodd"
         id="path988" />
      <path
         fill="#674ea7"
         d="m 806.12335,120.28871 v 0 c 0,-3.82685 3.10229,-6.92913 6.92914,-6.92913 v 0 c 1.83771,0 3.60016,0.73003 4.89966,2.02949 1.29943,1.29947 2.02948,3.06192 2.02948,4.89964 v 0 c 0,3.82686 -3.1023,6.92914 -6.92914,6.92914 v 0 c -3.82685,0 -6.92914,-3.10228 -6.92914,-6.92914 z"
         fill-rule="evenodd"
         id="path992" />
      <path
         fill="#674ea7"
         d="m 863.0971,25.055119 v 0 c 0,-3.826855 3.10229,-6.929134 6.92914,-6.929134 v 0 c 1.83771,0 3.60016,0.730032 4.89966,2.029497 1.29943,1.299463 2.02948,3.061916 2.02948,4.899637 v 0 c 0,3.826854 -3.1023,6.929132 -6.92914,6.929132 v 0 c -3.82685,0 -6.92914,-3.102278 -6.92914,-6.929132 z"
         fill-rule="evenodd"
         id="path994" />
      <path
         fill="#674ea7"
         d="m 863.0971,177.94751 v 0 c 0,-3.82686 3.10229,-6.92914 6.92914,-6.92914 v 0 c 1.83771,0 3.60016,0.73003 4.89966,2.0295 1.29943,1.29947 2.02948,3.06192 2.02948,4.89964 v 0 c 0,3.82686 -3.1023,6.92914 -6.92914,6.92914 v 0 c -3.82685,0 -6.92914,-3.10228 -6.92914,-6.92914 z"
         fill-rule="evenodd"
         id="path996" />
      <path
         fill="#000000"
         fill-opacity="0"
         d="M 870.02625,31.984251 V 171.00787"
         fill-rule="evenodd"
         id="path998" />
      <path
         fill="#674ea7"
         d="m 934.5958,25.04987 v 0 c 0,-3.826857 3.10223,-6.929134 6.92914,-6.929134 v 0 c 1.83771,0 3.60016,0.730032 4.89959,2.029495 1.2995,1.299465 2.02949,3.061918 2.02949,4.899639 v 0 c 0,3.826855 -3.10224,6.929132 -6.92908,6.929132 v 0 c -3.82691,0 -6.92914,-3.102278 -6.92914,-6.929132 z"
         fill-rule="evenodd"
         id="path1002" />
      <path
         fill="#674ea7"
         d="m 934.5958,177.94226 v 0 c 0,-3.82686 3.10223,-6.92914 6.92914,-6.92914 v 0 c 1.83771,0 3.60016,0.73003 4.89959,2.0295 1.2995,1.29947 2.02949,3.06192 2.02949,4.89964 v 0 c 0,3.82686 -3.10224,6.92912 -6.92908,6.92912 v 0 c -3.82691,0 -6.92914,-3.10226 -6.92914,-6.92912 z"
         fill-rule="evenodd"
         id="path1004" />
      <path
         fill="#000000"
         fill-opacity="0"
         d="m 876.9554,25.055119 h 57.63782"
         fill-rule="evenodd"
         id="path1006" />
      <path
         fill="#000000"
         fill-opacity="0"
         d="m 876.9554,177.94751 h 57.63782"
         fill-rule="evenodd"
         id="path1010" />
      <path
         fill="#674ea7"
         d="m 927.66406,101.49606 v 0 c 0,-3.826859 3.10223,-6.929131 6.92914,-6.929131 v 0 c 1.83771,0 3.60016,0.730027 4.89959,2.029496 1.2995,1.299461 2.02955,3.061912 2.02955,4.899635 v 0 c 0,3.82686 -3.1023,6.92913 -6.92914,6.92913 v 0 c -3.82691,0 -6.92914,-3.10227 -6.92914,-6.92913 z"
         fill-rule="evenodd"
         id="path1014" />
      <path
         fill="#000000"
         fill-opacity="0"
         d="m 870.02625,101.49606 h 57.63782"
         fill-rule="evenodd"
         id="path1016" />
    </g>
  </g>
</svg>
