<svg version="1.1" viewBox="0.0 0.0 958.8215223097113 196.21259842519686" fill="none" stroke="none" stroke-linecap="square" stroke-miterlimit="10" xmlns:xlink="http://www.w3.org/1999/xlink" xmlns="http://www.w3.org/2000/svg"><clipPath id="p.0"><path d="m0 0l958.82153 0l0 196.2126l-958.82153 0l0 -196.2126z" clip-rule="nonzero"/></clipPath><g clip-path="url(#p.0)"><path fill="#000000" fill-opacity="0.0" d="m0 0l958.82153 0l0 196.2126l-958.82153 0z" fill-rule="evenodd"/><path fill="#000000" fill-opacity="0.0" d="m729.5011 177.97351l0 0c27.044006 -0.1048584 48.973022 -34.00995 49.12024 -75.94631c0.14715576 -41.93637 -21.54248 -76.20964 -48.584167 -76.77101z" fill-rule="evenodd"/><path stroke="#000000" stroke-width="1.0" stroke-linejoin="round" stroke-linecap="butt" d="m729.5011 177.97351l0 0c27.044006 -0.1048584 48.973022 -34.00995 49.12024 -75.94631c0.14715576 -41.93637 -21.54248 -76.20964 -48.584167 -76.77101z" fill-rule="evenodd"/><path fill="#674ea7" d="m7.0524936 25.065617l0 0c0 -3.8268547 3.1022792 -6.9291344 6.929134 -6.9291344l0 0c1.8377199 0 3.600173 0.73003197 4.899638 2.0294971c1.2994633 1.2994652 2.0294952 3.0619164 2.0294952 4.899637l0 0c0 3.8268547 -3.1022778 6.9291344 -6.9291334 6.9291344l0 0c-3.8268547 0 -6.929134 -3.1022797 -6.929134 -6.9291344z" fill-rule="evenodd"/><path fill="#674ea7" d="m7.0524936 177.95801l0 0c0 -3.8268585 3.1022792 -6.929138 6.929134 -6.929138l0 0c1.8377199 0 3.600173 0.73002625 4.899638 2.0294952c1.2994633 1.299469 2.0294952 3.0619202 2.0294952 4.899643l0 0c0 3.8268585 -3.1022778 6.929138 -6.9291334 6.929138l0 0c-3.8268547 0 -6.929134 -3.1022797 -6.929134 -6.929138z" fill-rule="evenodd"/><path fill="#000000" fill-opacity="0.0" d="m13.981627 31.994751l0 139.02362" fill-rule="evenodd"/><path stroke="#000000" stroke-width="1.0" stroke-linejoin="round" stroke-linecap="butt" d="m13.981627 31.994751l0 139.02362" fill-rule="evenodd"/><path fill="#674ea7" d="m78.55118 25.060368l0 0c0 -3.8268547 3.1022797 -6.9291344 6.929138 -6.9291344l0 0c1.8377228 0 3.600174 0.73003197 4.8996353 2.0294971c1.299469 1.2994633 2.0294952 3.0619164 2.0294952 4.899637l0 0c0 3.8268547 -3.1022797 6.9291344 -6.9291306 6.9291344l0 0c-3.8268585 0 -6.929138 -3.1022797 -6.929138 -6.9291344z" fill-rule="evenodd"/><path fill="#674ea7" d="m78.55118 177.95276l0 0c0 -3.8268585 3.1022797 -6.929138 6.929138 -6.929138l0 0c1.8377228 0 3.600174 0.73002625 4.8996353 2.0294952c1.299469 1.299469 2.0294952 3.0619202 2.0294952 4.899643l0 0c0 3.8268585 -3.1022797 6.929138 -6.9291306 6.929138l0 0c-3.8268585 0 -6.929138 -3.1022797 -6.929138 -6.929138z" fill-rule="evenodd"/><path fill="#000000" fill-opacity="0.0" d="m85.480316 31.989502l0 139.02362" fill-rule="evenodd"/><path stroke="#000000" stroke-width="1.0" stroke-linejoin="round" stroke-linecap="butt" d="m85.480316 31.989502l0 139.02362" fill-rule="evenodd"/><path fill="#000000" fill-opacity="0.0" d="m18.881266 29.965254l61.70079 143.08661" fill-rule="evenodd"/><path stroke="#000000" stroke-width="1.0" stroke-linejoin="round" stroke-linecap="butt" d="m18.881266 29.965254l61.70079 143.08661" fill-rule="evenodd"/><path fill="#674ea7" d="m112.05249 25.065617l0 0c0 -3.8268547 3.1022797 -6.9291344 6.929138 -6.9291344l0 0c1.8377228 0 3.600174 0.73003197 4.8996353 2.0294971c1.299469 1.2994652 2.0294952 3.0619164 2.0294952 4.899637l0 0c0 3.8268547 -3.1022797 6.9291344 -6.9291306 6.9291344l0 0c-3.8268585 0 -6.929138 -3.1022797 -6.929138 -6.9291344z" fill-rule="evenodd"/><path fill="#674ea7" d="m112.05249 177.95801l0 0c0 -3.8268585 3.1022797 -6.929138 6.929138 -6.929138l0 0c1.8377228 0 3.600174 0.73002625 4.8996353 2.0294952c1.299469 1.299469 2.0294952 3.0619202 2.0294952 4.899643l0 0c0 3.8268585 -3.1022797 6.929138 -6.9291306 6.929138l0 0c-3.8268585 0 -6.929138 -3.1022797 -6.929138 -6.929138z" fill-rule="evenodd"/><path fill="#000000" fill-opacity="0.0" d="m118.98163 31.994751l0 139.02362" fill-rule="evenodd"/><path stroke="#000000" stroke-width="1.0" stroke-linejoin="round" stroke-linecap="butt" d="m118.98163 31.994751l0 139.02362" fill-rule="evenodd"/><path fill="#674ea7" d="m183.55118 25.060368l0 0c0 -3.8268547 3.1022797 -6.9291344 6.929138 -6.9291344l0 0c1.8377228 0 3.600174 0.73003197 4.899643 2.0294971c1.2994537 1.2994633 2.0294952 3.0619164 2.0294952 4.899637l0 0c0 3.8268547 -3.1022797 6.9291344 -6.929138 6.9291344l0 0c-3.8268585 0 -6.929138 -3.1022797 -6.929138 -6.9291344z" fill-rule="evenodd"/><path fill="#674ea7" d="m183.55118 177.95276l0 0c0 -3.8268585 3.1022797 -6.929138 6.929138 -6.929138l0 0c1.8377228 0 3.600174 0.73002625 4.899643 2.0294952c1.2994537 1.299469 2.0294952 3.0619202 2.0294952 4.899643l0 0c0 3.8268585 -3.1022797 6.929138 -6.929138 6.929138l0 0c-3.8268585 0 -6.929138 -3.1022797 -6.929138 -6.929138z" fill-rule="evenodd"/><path fill="#000000" fill-opacity="0.0" d="m125.91076 25.065617l57.637794 0" fill-rule="evenodd"/><path stroke="#000000" stroke-width="1.0" stroke-linejoin="round" stroke-linecap="butt" d="m125.91076 25.065617l57.637794 0" fill-rule="evenodd"/><path fill="#000000" fill-opacity="0.0" d="m125.91076 177.95801l57.637794 0" fill-rule="evenodd"/><path stroke="#000000" stroke-width="1.0" stroke-linejoin="round" stroke-linecap="butt" d="m125.91076 177.95801l57.637794 0" fill-rule="evenodd"/><path fill="#674ea7" d="m176.61942 101.50656l0 0c0 -3.826851 3.1022797 -6.9291306 6.929138 -6.9291306l0 0c1.8377228 0 3.600174 0.73002625 4.899643 2.0294952c1.299469 1.2994614 2.0294952 3.0619125 2.0294952 4.8996353l0 0c0 3.8268585 -3.1022797 6.9291306 -6.929138 6.9291306l0 0c-3.8268585 0 -6.929138 -3.102272 -6.929138 -6.9291306z" fill-rule="evenodd"/><path fill="#000000" fill-opacity="0.0" d="m118.98163 101.50656l57.637787 0" fill-rule="evenodd"/><path stroke="#000000" stroke-width="1.0" stroke-linejoin="round" stroke-linecap="butt" d="m118.98163 101.50656l57.637787 0" fill-rule="evenodd"/><path fill="#674ea7" d="m210.12073 25.057743l0 0c0 -3.8268547 3.1022797 -6.9291344 6.929138 -6.9291344l0 0c1.8377228 0 3.600174 0.73003197 4.899643 2.0294971c1.299469 1.2994633 2.0294952 3.0619164 2.0294952 4.899637l0 0c0 3.8268547 -3.1022797 6.9291344 -6.929138 6.9291344l0 0c-3.8268585 0 -6.929138 -3.1022797 -6.929138 -6.9291344z" fill-rule="evenodd"/><path fill="#674ea7" d="m281.61942 25.052494l0 0c0 -3.8268547 3.102295 -6.9291344 6.929138 -6.9291344l0 0c1.837738 0 3.6001892 0.73003197 4.8996277 2.0294971c1.299469 1.2994633 2.0295105 3.0619164 2.0295105 4.899637l0 0c0 3.8268547 -3.102295 6.9291325 -6.929138 6.9291325l0 0c-3.8268433 0 -6.929138 -3.1022778 -6.929138 -6.9291325z" fill-rule="evenodd"/><path fill="#674ea7" d="m245.86876 177.94226l0 0c0 -3.8268585 3.1022797 -6.929138 6.929138 -6.929138l0 0c1.8377228 0 3.600174 0.73002625 4.899643 2.0294952c1.299469 1.299469 2.02948 3.0619202 2.02948 4.899643l0 0c0 3.8268585 -3.1022644 6.929123 -6.929123 6.929123l0 0c-3.8268585 0 -6.929138 -3.1022644 -6.929138 -6.929123z" fill-rule="evenodd"/><path fill="#000000" fill-opacity="0.0" d="m223.979 25.057743l57.637787 0" fill-rule="evenodd"/><path stroke="#000000" stroke-width="1.0" stroke-linejoin="round" stroke-linecap="butt" d="m223.979 25.057743l57.637787 0" fill-rule="evenodd"/><path fill="#000000" fill-opacity="0.0" d="m252.7979 25.249344l0 145.76378" fill-rule="evenodd"/><path stroke="#000000" stroke-width="1.0" stroke-linejoin="round" stroke-linecap="butt" d="m252.7979 25.249344l0 145.76378" fill-rule="evenodd"/><path fill="#000000" fill-opacity="0.0" d="m298.12073 101.61155l0 0c0 -42.173683 19.114288 -76.362206 42.692932 -76.362206l0 0c11.322845 0 22.181976 8.04528 30.188446 22.36597c8.00647 14.320694 12.504456 33.743717 12.504456 53.996235l0 0c0 42.173683 -19.114258 76.362206 -42.6929 76.362206l0 0c-23.578644 0 -42.692932 -34.188522 -42.692932 -76.362206z" fill-rule="evenodd"/><path stroke="#000000" stroke-width="1.0" stroke-linejoin="round" stroke-linecap="butt" d="m298.12073 101.61155l0 0c0 -42.173683 19.114288 -76.362206 42.692932 -76.362206l0 0c11.322845 0 22.181976 8.04528 30.188446 22.36597c8.00647 14.320694 12.504456 33.743717 12.504456 53.996235l0 0c0 42.173683 -19.114258 76.362206 -42.6929 76.362206l0 0c-23.578644 0 -42.692932 -34.188522 -42.692932 -76.362206z" fill-rule="evenodd"/><path fill="#674ea7" d="m389.90027 25.167978l0 0c0 -3.8268547 3.1022644 -6.9291325 6.929138 -6.9291325l0 0c1.8377075 0 3.6001587 0.73003006 4.8996277 2.0294952c1.299469 1.2994652 2.0295105 3.0619183 2.0295105 4.899637l0 0c0 3.8268566 -3.102295 6.9291363 -6.929138 6.9291363l0 0c-3.8268738 0 -6.929138 -3.1022797 -6.929138 -6.9291363z" fill-rule="evenodd"/><path fill="#674ea7" d="m421.39896 178.05511l0 0c0 -3.8268585 3.1022644 -6.929123 6.929138 -6.929123l0 0c1.8377075 0 3.6001587 0.73002625 4.8996277 2.0294952c1.299469 1.2994537 2.0295105 3.061905 2.0295105 4.8996277l0 0c0 3.8268585 -3.102295 6.929138 -6.929138 6.929138l0 0c-3.8268738 0 -6.929138 -3.1022797 -6.929138 -6.929138z" fill-rule="evenodd"/><path fill="#000000" fill-opacity="0.0" d="m396.8294 32.097115l26.614166 141.07086" fill-rule="evenodd"/><path stroke="#000000" stroke-width="1.0" stroke-linejoin="round" stroke-linecap="butt" d="m396.8294 32.097115l26.614166 141.07086" fill-rule="evenodd"/><path fill="#000000" fill-opacity="0.0" d="m433.22772 173.15549l13.448822 -29.448822" fill-rule="evenodd"/><path stroke="#000000" stroke-width="1.0" stroke-linejoin="round" stroke-linecap="butt" d="m433.22772 173.15549l13.448822 -29.448822" fill-rule="evenodd"/><path fill="#000000" fill-opacity="0.0" d="m460.10825 173.04262l-13.448822 -29.32283" fill-rule="evenodd"/><path stroke="#000000" stroke-width="1.0" stroke-linejoin="round" stroke-linecap="butt" d="m460.10825 173.04262l-13.448822 -29.32283" fill-rule="evenodd"/><path fill="#674ea7" d="m458.07874 177.94226l0 0c0 -3.8268585 3.102295 -6.929138 6.929138 -6.929138l0 0c1.8377075 0 3.6001587 0.73002625 4.8996277 2.0294952c1.299469 1.299469 2.0295105 3.0619202 2.0295105 4.899643l0 0c0 3.8268585 -3.102295 6.929123 -6.929138 6.929123l0 0c-3.8268433 0 -6.929138 -3.1022644 -6.929138 -6.929123z" fill-rule="evenodd"/><path fill="#674ea7" d="m484.13385 25.052494l0 0c0 -3.8268547 3.102295 -6.9291344 6.929138 -6.9291344l0 0c1.837738 0 3.6001892 0.73003197 4.8996277 2.0294971c1.299469 1.2994633 2.0295105 3.0619164 2.0295105 4.899637l0 0c0 3.8268547 -3.1022644 6.9291325 -6.929138 6.9291325l0 0c-3.8268433 0 -6.929138 -3.1022778 -6.929138 -6.9291325z" fill-rule="evenodd"/><path fill="#000000" fill-opacity="0.0" d="m469.9075 173.04262l21.165375 -141.07086" fill-rule="evenodd"/><path stroke="#000000" stroke-width="1.0" stroke-linejoin="round" stroke-linecap="butt" d="m469.9075 173.04262l21.165375 -141.07086" fill-rule="evenodd"/><path fill="#674ea7" d="m439.7454 150.6483l0 0c0 -3.8268585 3.102295 -6.929138 6.929138 -6.929138l0 0c1.837738 0 3.6001892 0.73002625 4.899658 2.0294952c1.299469 1.299469 2.02948 3.0619202 2.02948 4.899643l0 0c0 3.8268433 -3.1022644 6.929123 -6.929138 6.929123l0 0c-3.8268433 0 -6.929138 -3.1022797 -6.929138 -6.929123z" fill-rule="evenodd"/><path fill="#674ea7" d="m514.30444 25.062992l0 0c0 -3.8268547 3.102295 -6.9291344 6.929138 -6.9291344l0 0c1.8377075 0 3.6001587 0.73003197 4.899658 2.0294971c1.2994385 1.2994652 2.02948 3.0619164 2.02948 4.899637l0 0c0 3.8268547 -3.102295 6.9291344 -6.929138 6.9291344l0 0c-3.8268433 0 -6.929138 -3.1022797 -6.929138 -6.9291344z" fill-rule="evenodd"/><path fill="#674ea7" d="m514.30444 177.95538l0 0c0 -3.8268585 3.102295 -6.929138 6.929138 -6.929138l0 0c1.8377075 0 3.6001587 0.73002625 4.899658 2.0294952c1.2994385 1.299469 2.02948 3.0619202 2.02948 4.899643l0 0c0 3.8268585 -3.102295 6.929138 -6.929138 6.929138l0 0c-3.8268433 0 -6.929138 -3.1022797 -6.929138 -6.929138z" fill-rule="evenodd"/><path fill="#000000" fill-opacity="0.0" d="m521.2336 31.992126l0 139.02362" fill-rule="evenodd"/><path stroke="#000000" stroke-width="1.0" stroke-linejoin="round" stroke-linecap="butt" d="m521.2336 31.992126l0 139.02362" fill-rule="evenodd"/><path fill="#674ea7" d="m585.80316 177.95013l0 0c0 -3.8268585 3.102295 -6.929138 6.929138 -6.929138l0 0c1.8377075 0 3.6001587 0.73002625 4.899597 2.0294952c1.2994995 1.299469 2.029541 3.0619202 2.029541 4.899643l0 0c0 3.8268585 -3.102295 6.929138 -6.929138 6.929138l0 0c-3.8268433 0 -6.929138 -3.1022797 -6.929138 -6.929138z" fill-rule="evenodd"/><path fill="#000000" fill-opacity="0.0" d="m528.1627 177.95538l57.637817 0" fill-rule="evenodd"/><path stroke="#000000" stroke-width="1.0" stroke-linejoin="round" stroke-linecap="butt" d="m528.1627 177.95538l57.637817 0" fill-rule="evenodd"/><path fill="#674ea7" d="m614.61945 25.057743l0 0c0 -3.8268547 3.102234 -6.9291344 6.929138 -6.9291344l0 0c1.8377075 0 3.6001587 0.73003197 4.899597 2.0294971c1.2994995 1.2994633 2.02948 3.0619164 2.02948 4.899637l0 0c0 3.8268547 -3.102234 6.9291344 -6.929077 6.9291344l0 0c-3.8269043 0 -6.929138 -3.1022797 -6.929138 -6.9291344z" fill-rule="evenodd"/><path fill="#674ea7" d="m614.61945 177.95013l0 0c0 -3.8268585 3.102234 -6.929138 6.929138 -6.929138l0 0c1.8377075 0 3.6001587 0.73002625 4.899597 2.0294952c1.2994995 1.299469 2.02948 3.0619202 2.02948 4.899643l0 0c0 3.8268585 -3.102234 6.929138 -6.929077 6.929138l0 0c-3.8269043 0 -6.929138 -3.1022797 -6.929138 -6.929138z" fill-rule="evenodd"/><path fill="#000000" fill-opacity="0.0" d="m621.5486 31.986877l0 139.02362" fill-rule="evenodd"/><path stroke="#000000" stroke-width="1.0" stroke-linejoin="round" stroke-linecap="butt" d="m621.5486 31.986877l0 139.02362" fill-rule="evenodd"/><path fill="#674ea7" d="m686.1181 25.052494l0 0c0 -3.8268547 3.102295 -6.9291344 6.929138 -6.9291344l0 0c1.8377075 0 3.6001587 0.73003197 4.899658 2.0294971c1.2994385 1.2994633 2.02948 3.0619164 2.02948 4.899637l0 0c0 3.8268547 -3.102295 6.9291325 -6.929138 6.9291325l0 0c-3.8268433 0 -6.929138 -3.1022778 -6.929138 -6.9291325z" fill-rule="evenodd"/><path fill="#674ea7" d="m686.1181 177.94489l0 0c0 -3.8268585 3.102295 -6.929138 6.929138 -6.929138l0 0c1.8377075 0 3.6001587 0.73002625 4.899658 2.0294952c1.2994385 1.299469 2.02948 3.0619202 2.02948 4.899643l0 0c0 3.8268585 -3.102295 6.929123 -6.929138 6.929123l0 0c-3.8268433 0 -6.929138 -3.1022644 -6.929138 -6.929123z" fill-rule="evenodd"/><path fill="#000000" fill-opacity="0.0" d="m628.47766 25.057743l57.637817 0" fill-rule="evenodd"/><path stroke="#000000" stroke-width="1.0" stroke-linejoin="round" stroke-linecap="butt" d="m628.47766 25.057743l57.637817 0" fill-rule="evenodd"/><path fill="#000000" fill-opacity="0.0" d="m628.47766 177.95013l57.637817 0" fill-rule="evenodd"/><path stroke="#000000" stroke-width="1.0" stroke-linejoin="round" stroke-linecap="butt" d="m628.47766 177.95013l57.637817 0" fill-rule="evenodd"/><path fill="#674ea7" d="m679.18634 101.49869l0 0c0 -3.8268585 3.102295 -6.9291306 6.929138 -6.9291306l0 0c1.8377075 0 3.6001587 0.73002625 4.899658 2.0294952c1.2994385 1.2994614 2.02948 3.0619125 2.02948 4.8996353l0 0c0 3.8268585 -3.102295 6.9291306 -6.929138 6.9291306l0 0c-3.8268433 0 -6.929138 -3.102272 -6.929138 -6.9291306z" fill-rule="evenodd"/><path fill="#000000" fill-opacity="0.0" d="m621.5486 101.49869l57.637756 0" fill-rule="evenodd"/><path stroke="#000000" stroke-width="1.0" stroke-linejoin="round" stroke-linecap="butt" d="m621.5486 101.49869l57.637756 0" fill-rule="evenodd"/><path fill="#674ea7" d="m721.8635 26.062992l0 0c0 -3.8268547 3.102295 -6.9291344 6.929138 -6.9291344l0 0c1.8377075 0 3.6001587 0.73003197 4.899597 2.0294971c1.2994995 1.2994652 2.029541 3.0619164 2.029541 4.899637l0 0c0 3.8268547 -3.102295 6.9291344 -6.929138 6.9291344l0 0c-3.8268433 0 -6.929138 -3.1022797 -6.929138 -6.9291344z" fill-rule="evenodd"/><path fill="#674ea7" d="m721.8635 178.95538l0 0c0 -3.8268585 3.102295 -6.929138 6.929138 -6.929138l0 0c1.8377075 0 3.6001587 0.73002625 4.899597 2.0294952c1.2994995 1.299469 2.029541 3.0619202 2.029541 4.899643l0 0c0 3.8268585 -3.102295 6.929138 -6.929138 6.929138l0 0c-3.8268433 0 -6.929138 -3.1022797 -6.929138 -6.929138z" fill-rule="evenodd"/><path fill="#000000" fill-opacity="0.0" d="m840.12317 25.682606l0 0c-27.028503 0.09396362 -48.956665 33.95288 -49.13263 75.86493c-0.17596436 41.91204 21.466125 76.21078 48.491577 76.850395l0.75146484 -76.35332z" fill-rule="evenodd"/><path fill="#000000" fill-opacity="0.0" d="m840.12317 25.682606l0 0c-27.028503 0.09396362 -48.956665 33.95288 -49.13263 75.86493c-0.17596436 41.91204 21.466125 76.21078 48.491577 76.850395" fill-rule="evenodd"/><path stroke="#000000" stroke-width="1.0" stroke-linejoin="round" stroke-linecap="butt" d="m840.12317 25.682606l0 0c-27.028503 0.09396362 -48.956665 33.95288 -49.13263 75.86493c-0.17596436 41.91204 21.466125 76.21078 48.491577 76.850395" fill-rule="evenodd"/><path fill="#674ea7" d="m837.20734 26.062992l0 0c0 -3.8268547 3.102295 -6.9291344 6.929138 -6.9291344l0 0c1.8377075 0 3.6001587 0.73003197 4.899658 2.0294971c1.2994385 1.2994652 2.02948 3.0619164 2.02948 4.899637l0 0c0 3.8268547 -3.102295 6.9291344 -6.929138 6.9291344l0 0c-3.8268433 0 -6.929138 -3.1022797 -6.929138 -6.9291344z" fill-rule="evenodd"/><path fill="#000000" fill-opacity="0.0" d="m839.4821 178.39793l0 -58.110237" fill-rule="evenodd"/><path stroke="#000000" stroke-width="1.0" stroke-linejoin="round" stroke-linecap="butt" d="m839.4821 178.39793l0 -58.110237" fill-rule="evenodd"/><path fill="#000000" fill-opacity="0.0" d="m838.7953 120.28871l-20.944885 0" fill-rule="evenodd"/><path stroke="#000000" stroke-width="1.0" stroke-linejoin="round" stroke-linecap="butt" d="m838.7953 120.28871l-20.944885 0" fill-rule="evenodd"/><path fill="#674ea7" d="m806.12335 120.28871l0 0c0 -3.826851 3.102295 -6.9291306 6.929138 -6.9291306l0 0c1.8377075 0 3.6001587 0.7300339 4.899658 2.0294952c1.2994385 1.2994614 2.02948 3.0619202 2.02948 4.8996353l0 0c0 3.8268585 -3.102295 6.929138 -6.929138 6.929138l0 0c-3.8268433 0 -6.929138 -3.1022797 -6.929138 -6.929138z" fill-rule="evenodd"/><path fill="#674ea7" d="m863.0971 25.055119l0 0c0 -3.8268547 3.102295 -6.9291344 6.929138 -6.9291344l0 0c1.8377075 0 3.6001587 0.73003197 4.899658 2.0294971c1.2994385 1.2994633 2.02948 3.0619164 2.02948 4.899637l0 0c0 3.8268547 -3.102295 6.9291325 -6.929138 6.9291325l0 0c-3.8268433 0 -6.929138 -3.1022778 -6.929138 -6.9291325z" fill-rule="evenodd"/><path fill="#674ea7" d="m863.0971 177.94751l0 0c0 -3.8268585 3.102295 -6.929138 6.929138 -6.929138l0 0c1.8377075 0 3.6001587 0.73002625 4.899658 2.0294952c1.2994385 1.299469 2.02948 3.0619202 2.02948 4.899643l0 0c0 3.8268585 -3.102295 6.929138 -6.929138 6.929138l0 0c-3.8268433 0 -6.929138 -3.1022797 -6.929138 -6.929138z" fill-rule="evenodd"/><path fill="#000000" fill-opacity="0.0" d="m870.02625 31.984251l0 139.02362" fill-rule="evenodd"/><path stroke="#000000" stroke-width="1.0" stroke-linejoin="round" stroke-linecap="butt" d="m870.02625 31.984251l0 139.02362" fill-rule="evenodd"/><path fill="#674ea7" d="m934.5958 25.04987l0 0c0 -3.8268566 3.102234 -6.9291344 6.929138 -6.9291344l0 0c1.8377075 0 3.6001587 0.73003197 4.899597 2.0294952c1.2994995 1.2994652 2.02948 3.0619183 2.02948 4.899639l0 0c0 3.8268547 -3.102234 6.9291325 -6.929077 6.9291325l0 0c-3.8269043 0 -6.929138 -3.1022778 -6.929138 -6.9291325z" fill-rule="evenodd"/><path fill="#674ea7" d="m934.5958 177.94226l0 0c0 -3.8268585 3.102234 -6.929138 6.929138 -6.929138l0 0c1.8377075 0 3.6001587 0.73002625 4.899597 2.0294952c1.2994995 1.299469 2.02948 3.0619202 2.02948 4.899643l0 0c0 3.8268585 -3.102234 6.929123 -6.929077 6.929123l0 0c-3.8269043 0 -6.929138 -3.1022644 -6.929138 -6.929123z" fill-rule="evenodd"/><path fill="#000000" fill-opacity="0.0" d="m876.9554 25.055119l57.637817 0" fill-rule="evenodd"/><path stroke="#000000" stroke-width="1.0" stroke-linejoin="round" stroke-linecap="butt" d="m876.9554 25.055119l57.637817 0" fill-rule="evenodd"/><path fill="#000000" fill-opacity="0.0" d="m876.9554 177.94751l57.637817 0" fill-rule="evenodd"/><path stroke="#000000" stroke-width="1.0" stroke-linejoin="round" stroke-linecap="butt" d="m876.9554 177.94751l57.637817 0" fill-rule="evenodd"/><path fill="#674ea7" d="m927.66406 101.49606l0 0c0 -3.8268585 3.102234 -6.9291306 6.929138 -6.9291306l0 0c1.8377075 0 3.6001587 0.73002625 4.899597 2.0294952c1.2994995 1.2994614 2.029541 3.0619125 2.029541 4.8996353l0 0c0 3.8268585 -3.102295 6.9291306 -6.929138 6.9291306l0 0c-3.8269043 0 -6.929138 -3.102272 -6.929138 -6.9291306z" fill-rule="evenodd"/><path fill="#000000" fill-opacity="0.0" d="m870.02625 101.49606l57.637817 0" fill-rule="evenodd"/><path stroke="#000000" stroke-width="1.0" stroke-linejoin="round" stroke-linecap="butt" d="m870.02625 101.49606l57.637817 0" fill-rule="evenodd"/></g></svg>